<svg width="20" height="20" viewBox="0 0 20 20" fill="none" xmlns="http://www.w3.org/2000/svg">
<path d="M10.0997 0.706428L10.2 0.700195C10.6079 0.700195 10.9444 1.00538 10.9938 1.39985L11 1.5002V9.2002H18.7C19.1079 9.2002 19.4444 9.50538 19.4938 9.89985L19.5 10.0002C19.5 10.408 19.1948 10.7446 18.8004 10.794L18.7 10.8002H11V18.5002C11 18.908 10.6948 19.2446 10.3004 19.294L10.2 19.3002C9.79218 19.3002 9.45562 18.995 9.40626 18.6005L9.40002 18.5002V10.8002H1.70002C1.29218 10.8002 0.955623 10.495 0.906258 10.1005L0.900024 10.0002C0.900024 9.59235 1.20521 9.25579 1.59967 9.20643L1.70002 9.2002H9.40002V1.5002C9.40002 1.09235 9.70521 0.755794 10.0997 0.706428L10.2 0.700195L10.0997 0.706428Z" fill="#1DAB61"/>
</svg>
