<svg width="24" height="24" viewBox="0 0 24 24" fill="none" xmlns="http://www.w3.org/2000/svg">
<path fill-rule="evenodd" clip-rule="evenodd" d="M15.5426 2.67444C15.0671 2.24029 14.4496 2 13.8093 2H10.3026C9.66249 2 9.0451 2.24017 8.56965 2.67411L7.88139 3.3023C7.41363 3.72923 6.80622 3.96552 6.17647 3.96552C3.31758 3.96552 1 6.31216 1 9.2069V15.7586C1 18.6534 3.31758 21 6.17647 21H17.8235C20.6824 21 23 18.6534 23 15.7586V9.2069C23 6.31216 20.6824 3.96552 17.8235 3.96552L17.6384 3.95782C17.1474 3.91689 16.6812 3.71404 16.3128 3.37767L15.5426 2.67444ZM10.3026 3.2H13.8093C14.1497 3.2 14.4787 3.32804 14.7335 3.56062L15.5037 4.26385C16.0668 4.77802 16.7821 5.0906 17.5387 5.15367L17.7737 5.16448C20.0163 5.16552 21.8 6.97158 21.8 9.2069V15.7586C21.8 17.9939 20.0163 19.8 17.8235 19.8H6.17647C3.9837 19.8 2.2 17.9939 2.2 15.7586V9.2069C2.2 7.03932 3.87723 5.27537 5.97829 5.17045L6.40806 5.1583C7.25389 5.10549 8.05922 4.76468 8.69035 4.18863L9.37862 3.56044C9.63332 3.32798 9.9623 3.2 10.3026 3.2ZM12 7.005C14.7614 7.005 17 9.24358 17 12.005C17 14.7664 14.7614 17.005 12 17.005C9.23858 17.005 7 14.7664 7 12.005C7 9.24358 9.23858 7.005 12 7.005ZM8.2 12.005C8.2 9.90632 9.90132 8.205 12 8.205C14.0987 8.205 15.8 9.90632 15.8 12.005C15.8 14.1037 14.0987 15.805 12 15.805C9.90132 15.805 8.2 14.1037 8.2 12.005Z" fill="#1DAB61"/>
</svg>
