<svg width="24" height="24" viewBox="0 0 24 24" fill="none" xmlns="http://www.w3.org/2000/svg">
<path fill-rule="evenodd" clip-rule="evenodd" d="M11.9999 0C14.4852 0 16.4999 2.01472 16.4999 4.5V11.5C16.4999 13.9853 14.4852 16 11.9999 16C9.51462 16 7.4999 13.9853 7.4999 11.5V4.5C7.4999 2.01472 9.51462 0 11.9999 0ZM4.7499 10.3284C5.04814 10.3284 5.29555 10.546 5.34205 10.831L5.3499 10.9284V11.0603C5.3499 14.8004 8.3294 17.8284 11.9999 17.8284C15.5923 17.8284 18.5228 14.9278 18.6459 11.2981L18.6499 11.0603V10.9388C18.6499 10.6074 18.9185 10.3388 19.2499 10.3388C19.5481 10.3388 19.7955 10.5564 19.842 10.8415L19.8499 10.9388L19.8462 11.3084C19.7232 15.3891 16.5765 18.7005 12.5998 19.0055L12.5999 22.5C12.5999 22.8314 12.3313 23.1 11.9999 23.1C11.7017 23.1 11.4543 22.8824 11.4078 22.5973L11.3999 22.5L11.4004 19.0055C7.42599 18.7009 4.2806 15.3934 4.15387 11.3161L4.1499 10.9284C4.1499 10.597 4.41853 10.3284 4.7499 10.3284ZM8.6999 4.5C8.6999 2.67746 10.1774 1.2 11.9999 1.2C13.8224 1.2 15.2999 2.67746 15.2999 4.5V11.5C15.2999 13.3225 13.8224 14.8 11.9999 14.8C10.1774 14.8 8.6999 13.3225 8.6999 11.5V4.5Z" fill="#1DAB61"/>
</svg>
